<svg xmlns="http://www.w3.org/2000/svg" width="261.13" height="48" viewBox="0 0 261.13 48"><defs><style>.a{fill:#00707e;}.b{fill:#f7aa0c;}.c{fill:#ffd004;}.d{fill:#ee7e3e;}.e{fill:#e42f31;}.f{fill:#c6c0b4;}.g{fill:#8c8b82;}.h{fill:#b8cd76;}.i{fill:#7db62c;}.j{fill:#289c37;}.k{fill:#00843a;}.l{fill:#085ca5;}.m{fill:#21b9db;}.n{fill:#a7589a;}.o{fill:#5b267d;}.p{fill:#5fa4b0;}.q{fill:#5b579e;}.r{fill:#8da5d1;}</style></defs><title>School-of-Engineering</title><path class="a" d="M92.32,6.48h1.84v4.71c0,1.3.37,1.78,1.23,1.78.69,0,1.15-.32,1.75-1.09V6.48H99v7.89H97.48l-.15-1.16h0a3.21,3.21,0,0,1-2.54,1.35c-1.68,0-2.42-1.14-2.42-3.13Z"/><path class="a" d="M101.12,6.48h1.53l.13,1.06h.06a3.67,3.67,0,0,1,2.59-1.25c1.69,0,2.43,1.14,2.43,3.13v4.95H106V9.66c0-1.3-.37-1.78-1.24-1.78a2.51,2.51,0,0,0-1.8,1v5.51h-1.85Z"/><path class="a" d="M110.23,6.48h1.85v7.89h-1.85Z"/><path class="a" d="M113.46,6.48h1.88l1.26,4.1c.2.77.45,1.57.65,2.38h.07c.22-.81.45-1.61.67-2.38l1.26-4.1H121l-2.68,7.89h-2.14Z"/><path class="a" d="M125.22,6.29c2.14,0,3.27,1.54,3.27,3.74a4.51,4.51,0,0,1-.08.87h-5a2.26,2.26,0,0,0,2.33,2.23,3.32,3.32,0,0,0,1.83-.57l.63,1.15a4.94,4.94,0,0,1-2.7.85,3.8,3.8,0,0,1-3.89-4.13A3.84,3.84,0,0,1,125.22,6.29Zm1.66,3.44c0-1.26-.53-2-1.61-2-.93,0-1.73.69-1.89,2Z"/><path class="a" d="M130.41,6.48h1.53l.13,1.4h.06a2.69,2.69,0,0,1,2.24-1.59,2,2,0,0,1,.9.16l-.33,1.61a2.55,2.55,0,0,0-.81-.13c-.63,0-1.39.43-1.87,1.62v4.82h-1.85Z"/><path class="a" d="M136.41,12.28a3.48,3.48,0,0,0,2.18.89c.85,0,1.26-.41,1.26-.95s-.86-1-1.69-1.27c-1-.39-2.22-1-2.22-2.3s1.11-2.36,2.88-2.36a4.27,4.27,0,0,1,2.62,1l-.86,1.12a2.9,2.9,0,0,0-1.73-.67c-.79,0-1.16.37-1.16.86s.79.87,1.64,1.18c1.08.4,2.27.91,2.27,2.39s-1.08,2.44-3.07,2.44a5,5,0,0,1-3-1.09Z"/><path class="a" d="M143.43,6.48h1.85v7.89h-1.85Z"/><path class="a" d="M148.12,7.94H147V6.56l1.23-.08.22-2.15H150V6.48h2V7.94h-2V11.7c0,.94.36,1.39,1.11,1.39a2.14,2.14,0,0,0,.82-.18l.32,1.36a4.86,4.86,0,0,1-1.6.29c-1.84,0-2.51-1.15-2.51-2.86Z"/><path class="a" d="M156.81,6.29c2.14,0,3.26,1.54,3.26,3.74a3.83,3.83,0,0,1-.08.87h-5a2.26,2.26,0,0,0,2.33,2.23,3.35,3.35,0,0,0,1.83-.57l.63,1.15a5,5,0,0,1-2.7.85,3.8,3.8,0,0,1-3.89-4.13A3.83,3.83,0,0,1,156.81,6.29Zm1.66,3.44c0-1.26-.53-2-1.61-2s-1.73.69-1.9,2Z"/><path class="a" d="M110,4.26a1.15,1.15,0,1,1,1.14,1A1.06,1.06,0,0,1,110,4.26Z"/><path class="a" d="M143.22,4.26a1.14,1.14,0,1,1,1.14,1A1.06,1.06,0,0,1,143.22,4.26Z"/><polygon class="a" points="157 5.54 155.64 5.54 157.07 3.2 158.92 3.2 157 5.54"/><path class="a" d="M48.57,3.23h2.5v9h4.41v2.12H48.57Z"/><path class="a" d="M57.12,3.23h2.51V14.36H57.12Z"/><polygon class="a" points="61.6 3.23 68.56 3.23 68.56 5.34 64.11 5.34 64.11 7.58 67.89 7.58 67.89 9.68 64.11 9.68 64.11 12.24 68.73 12.24 68.73 14.36 61.6 14.36 61.6 3.23"/><polygon class="a" points="62.43 0 65.09 0 66.48 2.05 64.48 2.05 62.43 0"/><path class="a" d="M69.59,8.86A6.54,6.54,0,0,1,70,6.4,5.34,5.34,0,0,1,71.2,4.56a4.87,4.87,0,0,1,1.74-1.14A5.79,5.79,0,0,1,75.06,3a4.33,4.33,0,0,1,2,.45,5.19,5.19,0,0,1,1.41,1L77.13,6a3.53,3.53,0,0,0-.86-.62,3.08,3.08,0,0,0-2.36,0,2.57,2.57,0,0,0-.93.71,3.16,3.16,0,0,0-.6,1.12,4.75,4.75,0,0,0-.22,1.51,4.09,4.09,0,0,0,.78,2.67,2.86,2.86,0,0,0,2.35.94,2.44,2.44,0,0,0,.66-.08,1.32,1.32,0,0,0,.53-.26V10.14H74.64V8.09H78.7v5.12a4.87,4.87,0,0,1-1.57,1,5.75,5.75,0,0,1-2.15.39,5.89,5.89,0,0,1-2.11-.37,4.7,4.7,0,0,1-1.71-1.08A5,5,0,0,1,70,11.33,6.73,6.73,0,0,1,69.59,8.86Z"/><path class="a" d="M80.34,3.23h7V5.35H82.85V7.58h3.79v2.1H82.85v2.56h4.62v2.12H80.34Z"/><polygon class="b" points="9.71 19.97 0 25.57 0 14.36 9.71 19.97"/><polygon class="c" points="0 25.57 9.71 19.97 9.71 31.18 0 25.57"/><polygon class="d" points="9.71 31.18 0 36.79 0 25.57 9.71 31.18"/><polygon class="e" points="0 36.79 9.71 31.18 9.71 42.39 0 36.79"/><polygon class="f" points="9.71 8.75 0 14.36 0 3.15 9.71 8.75"/><polygon class="g" points="0 14.36 9.71 8.75 9.71 19.97 0 14.36"/><polygon class="h" points="19.42 14.36 9.71 8.75 9.71 19.97 19.42 14.36"/><polygon class="i" points="9.71 19.97 19.42 25.57 19.42 14.36 9.71 19.97"/><polygon class="j" points="19.42 25.57 9.71 19.97 9.71 31.18 19.42 25.57"/><polygon class="k" points="9.71 31.18 19.42 36.79 19.42 25.57 9.71 31.18"/><polygon class="l" points="9.71 42.39 19.42 48 19.42 36.79 9.71 42.39"/><polygon class="m" points="19.42 36.79 9.71 31.18 9.71 42.39 19.42 36.79"/><polygon class="n" points="19.42 36.79 29.13 42.39 29.13 31.18 19.42 36.79"/><polygon class="o" points="29.13 42.39 19.42 36.79 19.42 48 29.13 42.39"/><polygon class="a" points="38.84 14.36 29.13 19.97 29.13 8.75 38.84 14.36"/><polygon class="p" points="29.13 8.75 38.84 3.15 38.84 14.36 29.13 8.75"/><polygon class="q" points="38.84 36.79 29.13 42.39 29.13 31.18 38.84 36.79"/><polygon class="r" points="29.13 31.18 38.84 25.57 38.84 36.79 29.13 31.18"/><path class="d" d="M50.44,32.65a7,7,0,0,0,1.74,1.1,4.54,4.54,0,0,0,1.88.43,2.57,2.57,0,0,0,1.54-.38,1.24,1.24,0,0,0,.51-1,1.09,1.09,0,0,0-.15-.58,1.35,1.35,0,0,0-.42-.44,3.91,3.91,0,0,0-.68-.36L54,31l-1.92-.81A5.79,5.79,0,0,1,51,29.61a4.71,4.71,0,0,1-.94-.84,3.84,3.84,0,0,1-.67-1.13,4.12,4.12,0,0,1-.25-1.45,3.82,3.82,0,0,1,.39-1.7A4,4,0,0,1,50.6,23.1a5.12,5.12,0,0,1,1.65-.94,6.44,6.44,0,0,1,2.11-.34,6.83,6.83,0,0,1,2.53.5,6.42,6.42,0,0,1,2.19,1.44l-1.69,2.09A6.44,6.44,0,0,0,56,25a3.92,3.92,0,0,0-1.59-.31A2.42,2.42,0,0,0,53,25a1.13,1.13,0,0,0-.5,1,.88.88,0,0,0,.17.57,1.64,1.64,0,0,0,.47.43,4.27,4.27,0,0,0,.71.36l.88.37,1.89.77A5.08,5.08,0,0,1,58.73,30a3.83,3.83,0,0,1,.78,2.5,4.16,4.16,0,0,1-1.45,3.19,5.48,5.48,0,0,1-1.75,1A6.84,6.84,0,0,1,54,37a8.31,8.31,0,0,1-2.87-.53,7.4,7.4,0,0,1-2.55-1.59Z"/><path class="d" d="M61,31.19a6.32,6.32,0,0,1,.47-2.49,5.4,5.4,0,0,1,1.27-1.83,5.56,5.56,0,0,1,1.86-1.14,6.35,6.35,0,0,1,2.21-.39,4.87,4.87,0,0,1,1.87.34,4.21,4.21,0,0,1,1.39.94l-1.51,2.05A2.42,2.42,0,0,0,67,28a2.33,2.33,0,0,0-1.91.86,3.53,3.53,0,0,0-.7,2.32,3.55,3.55,0,0,0,.71,2.32,2.22,2.22,0,0,0,1.79.85,2.37,2.37,0,0,0,1.1-.25,5.06,5.06,0,0,0,.9-.56l1.33,2.09a5.16,5.16,0,0,1-1.8,1.06,5.81,5.81,0,0,1-1.92.34,5.93,5.93,0,0,1-2.17-.39,5.06,5.06,0,0,1-2.91-3A6.61,6.61,0,0,1,61,31.19Z"/><path class="d" d="M72,21h3.31v3.87l-.16,2a8.67,8.67,0,0,1,1.46-1.05,3.92,3.92,0,0,1,2-.48,3,3,0,0,1,2.65,1.19A5.75,5.75,0,0,1,82,29.84v6.93H78.73V30.26a3.08,3.08,0,0,0-.32-1.66,1.21,1.21,0,0,0-1-.45,2,2,0,0,0-1.08.28,6.2,6.2,0,0,0-1,.8v7.54H72Z"/><path class="d" d="M84,31.19a6.5,6.5,0,0,1,.45-2.49,5.27,5.27,0,0,1,1.21-1.83,5.05,5.05,0,0,1,1.74-1.14,5.56,5.56,0,0,1,4.09,0,5.11,5.11,0,0,1,1.73,1.14,5.39,5.39,0,0,1,1.2,1.83,6.5,6.5,0,0,1,.45,2.49,6.41,6.41,0,0,1-.45,2.48,5.54,5.54,0,0,1-1.2,1.84,5.42,5.42,0,0,1-1.73,1.14,5.56,5.56,0,0,1-4.09,0,5.27,5.27,0,0,1-3-3A6.41,6.41,0,0,1,84,31.19Zm3.4,0A4.53,4.53,0,0,0,88,33.51a1.81,1.81,0,0,0,3.07,0,4.43,4.43,0,0,0,.52-2.32A4.41,4.41,0,0,0,91,28.87a1.8,1.8,0,0,0-3.07,0A4.51,4.51,0,0,0,87.44,31.19Z"/><path class="d" d="M96.4,31.19a6.5,6.5,0,0,1,.45-2.49,5.39,5.39,0,0,1,1.2-1.83,5.19,5.19,0,0,1,1.75-1.14,5.53,5.53,0,0,1,2-.39,5.43,5.43,0,0,1,2,.39,5.15,5.15,0,0,1,1.74,1.14,5.39,5.39,0,0,1,1.2,1.83,6.5,6.5,0,0,1,.45,2.49,6.41,6.41,0,0,1-.45,2.48,5.54,5.54,0,0,1-1.2,1.84A5.35,5.35,0,0,1,101.85,37a5.26,5.26,0,0,1-5-3.37A6.41,6.41,0,0,1,96.4,31.19Zm3.4,0a4.53,4.53,0,0,0,.51,2.32,1.66,1.66,0,0,0,1.54.85,1.68,1.68,0,0,0,1.53-.85,4.53,4.53,0,0,0,.52-2.32,4.5,4.5,0,0,0-.52-2.32,1.69,1.69,0,0,0-1.53-.86,1.67,1.67,0,0,0-1.54.86A4.51,4.51,0,0,0,99.8,31.19Z"/><path class="d" d="M109.41,21h3.31V33.44a1.05,1.05,0,0,0,.19.72.57.57,0,0,0,.39.2h.19a.69.69,0,0,0,.22,0l.4,2.45a3.8,3.8,0,0,1-.68.19,5.63,5.63,0,0,1-1,.08,3.43,3.43,0,0,1-1.44-.27,2.41,2.41,0,0,1-.94-.75,3.26,3.26,0,0,1-.5-1.17,6.71,6.71,0,0,1-.16-1.55Z"/><path class="d" d="M119.61,31.19a6.5,6.5,0,0,1,.45-2.49,5.39,5.39,0,0,1,1.2-1.83A5.05,5.05,0,0,1,123,25.73a5.57,5.57,0,0,1,2-.39,5.44,5.44,0,0,1,2,.39,5.11,5.11,0,0,1,1.73,1.14A5.27,5.27,0,0,1,130,28.7a6.5,6.5,0,0,1,.45,2.49,6.41,6.41,0,0,1-.45,2.48,5.3,5.3,0,0,1-5,3.37,5.57,5.57,0,0,1-2-.39,5.36,5.36,0,0,1-1.74-1.14,5.54,5.54,0,0,1-1.2-1.84A6.41,6.41,0,0,1,119.61,31.19Zm3.39,0a4.53,4.53,0,0,0,.51,2.32,1.81,1.81,0,0,0,3.07,0,4.43,4.43,0,0,0,.52-2.32,4.41,4.41,0,0,0-.52-2.32,1.8,1.8,0,0,0-3.07,0A4.51,4.51,0,0,0,123,31.19Z"/><path class="d" d="M138.8,23.56a3.44,3.44,0,0,0-1.14-.23,1.25,1.25,0,0,0-.95.37,1.84,1.84,0,0,0-.34,1.23v.68h2v2.58h-2v8.58h-3.31V28.19h-1.48V25.74l1.48-.11V25a6.53,6.53,0,0,1,.22-1.67A3.52,3.52,0,0,1,134,22a3.37,3.37,0,0,1,1.28-.92,4.76,4.76,0,0,1,1.91-.34,5.64,5.64,0,0,1,1.28.14,9.07,9.07,0,0,1,.95.27Z"/><path class="d" d="M144.86,22.09H154v2.8h-5.87v2.94h5V30.6h-5V34h6.1v2.79h-9.41Z"/><path class="d" d="M156.79,25.61h2.7l.22,1.41h.09a9.16,9.16,0,0,1,1.58-1.18,3.83,3.83,0,0,1,2-.5A3,3,0,0,1,166,26.53a5.82,5.82,0,0,1,.82,3.31v6.93h-3.31V30.26a3,3,0,0,0-.33-1.66,1.18,1.18,0,0,0-1-.45,2,2,0,0,0-1.08.28,6.2,6.2,0,0,0-1,.8v7.54h-3.31Z"/><path class="d" d="M168.83,38.68a2.6,2.6,0,0,1,1.6-2.25v-.09a2.52,2.52,0,0,1-.75-.74,2.22,2.22,0,0,1,.07-2.31,3.32,3.32,0,0,1,.9-.93v-.09a3.7,3.7,0,0,1-1-1.16,3.27,3.27,0,0,1-.47-1.75,3.77,3.77,0,0,1,.39-1.76,3.51,3.51,0,0,1,1-1.26,4.42,4.42,0,0,1,1.48-.76,6.18,6.18,0,0,1,1.73-.24,5,5,0,0,1,1.73.27h4.08V28h-1.78a2.66,2.66,0,0,1,.26.63,3.72,3.72,0,0,1,.1.84,3.77,3.77,0,0,1-.34,1.67,3.18,3.18,0,0,1-.93,1.17,4.08,4.08,0,0,1-1.4.69,6.33,6.33,0,0,1-1.72.23,4.35,4.35,0,0,1-1.35-.23,1.15,1.15,0,0,0-.32.36,1.06,1.06,0,0,0-.09.47.67.67,0,0,0,.37.63,2.93,2.93,0,0,0,1.32.21h1.8a6.15,6.15,0,0,1,3.16.66,2.35,2.35,0,0,1,1.1,2.17,3.09,3.09,0,0,1-.44,1.61,4,4,0,0,1-1.25,1.26,6.77,6.77,0,0,1-2,.83,9.84,9.84,0,0,1-2.59.31,9.49,9.49,0,0,1-1.83-.17,5.22,5.22,0,0,1-1.49-.51,2.58,2.58,0,0,1-1-.87A2.27,2.27,0,0,1,168.83,38.68Zm2.72-.52a1,1,0,0,0,.68,1,4.13,4.13,0,0,0,1.8.33,3.72,3.72,0,0,0,1.84-.4,1.14,1.14,0,0,0,.72-1,.68.68,0,0,0-.43-.69,3.55,3.55,0,0,0-1.28-.18h-1.14a8.2,8.2,0,0,1-1,0,3.47,3.47,0,0,1-.63-.1A1.54,1.54,0,0,0,171.55,38.16Zm2.21-6.93a1.44,1.44,0,0,0,1.09-.46,2,2,0,0,0,.44-1.41,1.85,1.85,0,0,0-.44-1.33,1.52,1.52,0,0,0-2.18,0,1.83,1.83,0,0,0-.44,1.35,2,2,0,0,0,.44,1.41A1.42,1.42,0,0,0,173.76,31.23Z"/><path class="d" d="M183.05,24a2,2,0,0,1-1.37-.48,1.6,1.6,0,0,1-.54-1.25,1.58,1.58,0,0,1,.54-1.24,2.26,2.26,0,0,1,2.76,0,1.6,1.6,0,0,1,.53,1.24,1.62,1.62,0,0,1-.53,1.25A2,2,0,0,1,183.05,24Zm-1.64,1.65h3.31V36.77h-3.31Z"/><path class="d" d="M187.49,25.61h2.7l.22,1.41h.09a9.16,9.16,0,0,1,1.58-1.18,3.83,3.83,0,0,1,2-.5,3,3,0,0,1,2.65,1.19,5.75,5.75,0,0,1,.82,3.31v6.93h-3.31V30.26a3,3,0,0,0-.33-1.66,1.18,1.18,0,0,0-1-.45,2,2,0,0,0-1.08.28,6.2,6.2,0,0,0-1,.8v7.54h-3.31Z"/><path class="d" d="M199.57,31.19a6.32,6.32,0,0,1,.45-2.44,5.72,5.72,0,0,1,1.19-1.85,5.07,5.07,0,0,1,1.67-1.16,5.3,5.3,0,0,1,4,0,4.1,4.1,0,0,1,1.49,1.13,4.75,4.75,0,0,1,.89,1.7,7.54,7.54,0,0,1,.29,2.12,6.82,6.82,0,0,1,0,.82c0,.25-.07.44-.09.58h-6.69a2.77,2.77,0,0,0,1,1.85,3.07,3.07,0,0,0,1.9.58,4.63,4.63,0,0,0,2.41-.74l1.11,2a7.19,7.19,0,0,1-1.91.92,6.49,6.49,0,0,1-2.06.34,6.24,6.24,0,0,1-2.22-.39,5.1,5.1,0,0,1-1.8-1.15,5.34,5.34,0,0,1-1.2-1.84A6.76,6.76,0,0,1,199.57,31.19ZM206.78,30a2.73,2.73,0,0,0-.43-1.58,1.66,1.66,0,0,0-1.44-.6,2,2,0,0,0-1.39.53,2.72,2.72,0,0,0-.77,1.65Z"/><path class="d" d="M211.1,31.19a6.32,6.32,0,0,1,.45-2.44,5.7,5.7,0,0,1,1.18-1.85,5.22,5.22,0,0,1,1.68-1.16,4.91,4.91,0,0,1,2-.4,5,5,0,0,1,2.08.4,4.06,4.06,0,0,1,1.48,1.13,4.6,4.6,0,0,1,.89,1.7,7.19,7.19,0,0,1,.3,2.12,6.68,6.68,0,0,1-.05.82c0,.25-.06.44-.09.58h-6.69a2.78,2.78,0,0,0,1,1.85,3,3,0,0,0,1.9.58,4.66,4.66,0,0,0,2.41-.74l1.1,2a7.12,7.12,0,0,1-1.9.92,6.58,6.58,0,0,1-2.06.34,6.26,6.26,0,0,1-2.23-.39,5.29,5.29,0,0,1-1.8-1.15,5.18,5.18,0,0,1-1.19-1.84A6.56,6.56,0,0,1,211.1,31.19ZM218.3,30a2.66,2.66,0,0,0-.43-1.58,1.63,1.63,0,0,0-1.44-.6,2,2,0,0,0-1.38.53,2.67,2.67,0,0,0-.78,1.65Z"/><path class="d" d="M223.28,25.61H226l.22,1.95h.09a4.3,4.3,0,0,1,1.47-1.68,3.18,3.18,0,0,1,1.71-.54,4.18,4.18,0,0,1,.77.05,2.73,2.73,0,0,1,.55.17l-.54,2.86a5.36,5.36,0,0,0-.58-.14,3.92,3.92,0,0,0-.63,0,2.43,2.43,0,0,0-1.32.45,3.23,3.23,0,0,0-1.14,1.6v6.48h-3.3Z"/><path class="d" d="M233.74,24a2,2,0,0,1-1.37-.48,1.6,1.6,0,0,1-.54-1.25,1.58,1.58,0,0,1,.54-1.24,2.26,2.26,0,0,1,2.76,0,1.6,1.6,0,0,1,.53,1.24,1.62,1.62,0,0,1-.53,1.25A2,2,0,0,1,233.74,24Zm-1.64,1.65h3.31V36.77H232.1Z"/><path class="d" d="M238.18,25.61h2.7L241.1,27h.09a9.16,9.16,0,0,1,1.58-1.18,3.83,3.83,0,0,1,2-.5,3,3,0,0,1,2.65,1.19,5.82,5.82,0,0,1,.82,3.31v6.93h-3.31V30.26a3,3,0,0,0-.33-1.66,1.2,1.2,0,0,0-1-.45,2,2,0,0,0-1.09.28,6.2,6.2,0,0,0-1,.8v7.54h-3.3Z"/><path class="d" d="M250.22,38.68a2.6,2.6,0,0,1,1.6-2.25v-.09a2.52,2.52,0,0,1-.75-.74,2.22,2.22,0,0,1,.07-2.31,3.32,3.32,0,0,1,.9-.93v-.09a3.85,3.85,0,0,1-1-1.16,3.36,3.36,0,0,1-.46-1.75,3.77,3.77,0,0,1,.39-1.76,3.51,3.51,0,0,1,1-1.26,4.47,4.47,0,0,1,1.47-.76,6.3,6.3,0,0,1,1.74-.24,5,5,0,0,1,1.73.27H261V28h-1.77a2.66,2.66,0,0,1,.26.63,3.72,3.72,0,0,1,.1.84,3.92,3.92,0,0,1-.34,1.67,3.18,3.18,0,0,1-.93,1.17,4.08,4.08,0,0,1-1.4.69,6.33,6.33,0,0,1-1.72.23A4.35,4.35,0,0,1,253.8,33a1.15,1.15,0,0,0-.32.36,1.06,1.06,0,0,0-.09.47.67.67,0,0,0,.37.63,2.93,2.93,0,0,0,1.32.21h1.8a6.17,6.17,0,0,1,3.16.66,2.34,2.34,0,0,1,1.09,2.17,3.08,3.08,0,0,1-.43,1.61,4,4,0,0,1-1.25,1.26,6.77,6.77,0,0,1-2,.83,9.84,9.84,0,0,1-2.59.31,9.49,9.49,0,0,1-1.83-.17,5.22,5.22,0,0,1-1.49-.51,2.58,2.58,0,0,1-1-.87A2.27,2.27,0,0,1,250.22,38.68Zm2.72-.52a1,1,0,0,0,.68,1,4.13,4.13,0,0,0,1.8.33,3.72,3.72,0,0,0,1.84-.4,1.14,1.14,0,0,0,.72-1,.67.67,0,0,0-.44-.69,3.46,3.46,0,0,0-1.27-.18h-1.14a8.2,8.2,0,0,1-.95,0,3.47,3.47,0,0,1-.63-.1A1.5,1.5,0,0,0,252.94,38.16Zm2.21-6.93a1.44,1.44,0,0,0,1.09-.46,2,2,0,0,0,.44-1.41,1.85,1.85,0,0,0-.44-1.33,1.52,1.52,0,0,0-2.18,0,1.83,1.83,0,0,0-.44,1.35,2,2,0,0,0,.44,1.41A1.42,1.42,0,0,0,255.15,31.23Z"/></svg>